# xmcd
#
# Track frame offsets:
#	150
#	9267
#	21392
#	34970
#	46475
#	59047
#	75297
#	86970
#	96575
#	108660
#	118980
#	133335
#
# Disc length: 1964 seconds
#
# Revision: 2
# Processed by: cddbd v1.5.2PL0 Copyright (c) Steve Scherf et al.
# Submitted via: audiograbber 1.83.01
#
DISCID=ae07aa0c
DTITLE=Various Artist - The Banjo Hall of Fame - Vol.3
DYEAR=1998
DGENRE=Bluegrass
TTITLE0=Bluegrass Cardinals and Don Parmley - Pretty Red Wing
TTITLE1=Wynn Osborne - Aura Lee (Melody Used For "Love Me Tender")
TTITLE2=Don Reno - Mountaineer's Farewall
TTITLE3=The Masters and Eddie Adcock - Rambling Gambling Rag
TTITLE4=Raymond Fairchild and Arthur Smith - Grandfather's Clock
TTITLE5=The Nashville Superpickers and Mike Chickenhawk Toppins - Lyin' Eyes
TTITLE6=Don Reno and Arthur Smith - Hello Dolly
TTITLE7=Wynn Osborne - Randy Lynn Rag
TTITLE8=Pinnacle Boys and Mike Pearson - Wheels
TTITLE9=The Stonemans and Dave Dougherty - Heartbreak Mountain
TTITLE10=Don Reno - Skyline Drive
TTITLE11=Eddie Adcock - Black Mountain Rag
EXTD=No. 1130-15246-2
EXTT0=
EXTT1=
EXTT2=
EXTT3=
EXTT4=
EXTT5=
EXTT6=
EXTT7=
EXTT8=
EXTT9=
EXTT10=
EXTT11=
PLAYORDER=
